<svg xmlns="http://www.w3.org/2000/svg" width="42.711" height="32.047" viewBox="0 0 42.711 32.047">
  <g id="code" transform="translate(0 -65.225)">
    <g id="Group_2" data-name="Group 2" transform="translate(0 65.225)">
      <path id="Path_3" data-name="Path 3" d="M201.091,65.658l-1.447-.4a.652.652,0,0,0-.548.058.759.759,0,0,0-.362.455l-8.706,30.132a.7.7,0,0,0,.058.572.758.758,0,0,0,.455.362l1.447.4a.65.65,0,0,0,.549-.058.76.76,0,0,0,.362-.455L201.6,66.591a.7.7,0,0,0-.059-.572A.757.757,0,0,0,201.091,65.658Z" transform="translate(-174.46 -65.225)" fill="#fff"/>
      <path id="Path_4" data-name="Path 4" d="M13.584,120.7a.738.738,0,0,0-.233-.537L12.183,119a.734.734,0,0,0-1.074,0L.233,129.875a.734.734,0,0,0,0,1.074L11.11,141.825a.734.734,0,0,0,1.074,0l1.167-1.166a.734.734,0,0,0,0-1.074l-9.173-9.173,9.173-9.172A.737.737,0,0,0,13.584,120.7Z" transform="translate(0 -114.388)" fill="#fff"/>
      <path id="Path_5" data-name="Path 5" d="M369.662,129.872,358.785,119a.734.734,0,0,0-1.074,0l-1.167,1.167a.735.735,0,0,0,0,1.074l9.173,9.173-9.173,9.173a.735.735,0,0,0,0,1.074l1.167,1.166a.734.734,0,0,0,1.074,0l10.876-10.876a.735.735,0,0,0,0-1.074Z" transform="translate(-327.184 -114.385)" fill="#fff"/>
    </g>
  </g>
</svg>
